<?xml version="1.0" encoding="utf-8"?>
<!-- Generator: Adobe Illustrator 22.1.0, SVG Export Plug-In . SVG Version: 6.00 Build 0)  -->
<svg version="1.1" id="_x37_" xmlns="http://www.w3.org/2000/svg" xmlns:xlink="http://www.w3.org/1999/xlink" x="0px" y="0px" height="141px" width="128px"
	 viewBox="0 0 128 141" style="enable-background:new 0 0 128 141;" xml:space="preserve">
<style type="text/css">
	.st0{fill:#F9EAB2;}
	.st1{fill:#424E4F;}
	.st2{fill:#5E6D70;}
	.st3{fill:#FF6600;}
	.st4{fill:#C13B00;}
</style>
<g>
	<g>
		<g>
			<g>
				<g>
					<rect class="st0" width="128" height="141"/>
					<g>
						<g>
							<g>
								<g>
									<rect x="48.398" y="54.871" class="st1" width="15.602" height="15.629"/>
									
										<rect x="48.385" y="70.513" transform="matrix(6.123234e-17 -1 1 6.123234e-17 -22.1151 134.5135)" class="st1" width="15.629" height="15.602"/>
									<rect x="64" y="70.5" class="st2" width="15.601" height="15.629"/>
									
										<rect x="63.986" y="54.885" transform="matrix(-1.836970e-16 1 -1 -1.836970e-16 134.4865 -9.1151)" class="st1" width="15.629" height="15.602"/>
									<polygon class="st3" points="64,70.5 48.398,54.871 64,39.243 									"/>
									<polygon class="st3" points="64,70.5 48.398,86.129 32.797,70.5 									"/>
									<polygon class="st3" points="64,70.5 79.602,86.129 64,101.757 									"/>
									<polygon class="st4" points="64,70.5 79.602,54.871 95.203,70.5 									"/>
									<polygon class="st4" points="79.601,71.788 79.601,77.197 74.04,77.197 79.521,71.707 									"/>
									<polygon class="st4" points="67.27,73.516 70.087,70.695 72.903,73.516 									"/>
									<polygon class="st4" points="71.085,75.724 72.524,74.282 73.964,75.724 									"/>
									<polygon class="st4" points="73.864,72.75 75.429,71.182 76.995,72.75 									"/>
									<polygon class="st4" points="74.128,80.651 76.945,77.829 79.761,80.651 									"/>
								</g>
							</g>
						</g>
					</g>
				</g>
				<g>
					
						<rect x="112.385" y="0.013" transform="matrix(6.123234e-17 -1 1 6.123234e-17 112.3849 128.0135)" class="st1" width="15.629" height="15.602"/>
					<polygon class="st3" points="128,0 112.398,15.629 96.797,0 					"/>
				</g>
			</g>
			<g>
				<g>
					<rect x="112.398" y="125.371" class="st1" width="15.602" height="15.629"/>
					<polygon class="st3" points="128,141 112.398,125.371 128,109.743 					"/>
				</g>
			</g>
		</g>
		<g>
			
				<rect x="-0.014" y="125.385" transform="matrix(-1.836970e-16 1 -1 -1.836970e-16 140.9865 125.3849)" class="st1" width="15.629" height="15.602"/>
			<polygon class="st4" points="0,141 15.602,125.371 31.203,141 			"/>
		</g>
		<g>
			<g>
				<rect class="st2" width="15.601" height="15.629"/>
				<polygon class="st3" points="0,0 15.602,15.629 0,31.257 				"/>
				<polygon class="st4" points="15.601,1.288 15.601,6.697 10.04,6.697 15.521,1.207 				"/>
				<polygon class="st4" points="3.27,3.016 6.087,0.195 8.903,3.016 				"/>
				<polygon class="st4" points="7.085,5.224 8.524,3.782 9.964,5.224 				"/>
				<polygon class="st4" points="9.864,2.25 11.429,0.682 12.995,2.25 				"/>
				<polygon class="st4" points="10.128,10.151 12.945,7.329 15.762,10.151 				"/>
			</g>
		</g>
	</g>
	<polygon class="st3" points="31.203,111.98 45.916,97.241 45.916,111.98 	"/>
	<polygon class="st4" points="11.429,42.394 26.143,57.132 11.429,57.132 	"/>
	<polygon class="st1" points="104.14,23.741 89.427,38.48 89.427,23.741 	"/>
	<polygon class="st2" points="109.916,117.112 95.203,102.373 109.916,102.373 	"/>
</g>
</svg>
