<?xml version="1.0" encoding="UTF-8" standalone="no"?>
<svg
   width="146.24036"
   height="102.48847"
   version="1.1"
   xml:space="preserve"
   style="clip-rule:evenodd;fill-rule:evenodd;stroke-linejoin:round;stroke-miterlimit:2"
   id="svg60"
   sodipodi:docname="misskey.svg"
   xmlns:inkscape="http://www.inkscape.org/namespaces/inkscape"
   xmlns:sodipodi="http://sodipodi.sourceforge.net/DTD/sodipodi-0.dtd"
   xmlns="http://www.w3.org/2000/svg"
   xmlns:svg="http://www.w3.org/2000/svg"><defs
   id="defs64" /><sodipodi:namedview
   id="namedview62"
   pagecolor="#ffffff"
   bordercolor="#000000"
   borderopacity="0.25"
   inkscape:showpageshadow="2"
   inkscape:pageopacity="0.0"
   inkscape:pagecheckerboard="0"
   inkscape:deskcolor="#d1d1d1"
   showgrid="false" />
    <g
   id="path2"
   transform="matrix(0.264585,0,0,0.264585,-54.402184,-58.489081)">
        <path
   d="m 273.05426,221.06025 c -7.86,-0.032 -15.66,1.332 -23.039,4.037 -13.071,4.6 -23.846,12.875 -32.288,24.789 -8.071,11.527 -12.114,24.393 -12.114,38.607 v 252.481 c 0,18.442 6.543,34.4 19.599,47.842 13.456,13.071 29.414,19.599 47.842,19.599 18.841,0 34.786,-6.528 47.856,-19.584 13.456,-13.456 20.167,-29.415 20.167,-47.857 v -45.907 c 0.143,-9.943 10.383,-7.328 15.569,0 9.685,16.784 30.241,31.207 54.183,31.122 v 0.014 c 23.926,-0.1 43.812,-11.923 54.182,-31.136 3.929,-4.629 15.002,-12.528 16.145,0 v 45.907 c 0,18.442 6.527,34.4 19.584,47.842 13.47,13.071 29.407,19.599 47.849,19.599 18.827,0 34.786,-6.528 47.856,-19.584 13.456,-13.456 20.168,-29.415 20.168,-47.857 v -252.481 c 0,-14.214 -4.225,-27.08 -12.668,-38.607 -8.085,-11.928 -18.656,-20.189 -31.712,-24.789 -7.685,-2.699 -15.369,-4.037 -23.054,-4.037 -20.755,0 -38.242,8.07 -52.47,24.212 l -68.437,80.093 c -1.529,1.157 -6.63,9.966 -17.458,9.966 -10.799,0 -15.31,-8.808 -16.853,-9.951 l -69.028,-80.108 c -13.827,-16.142 -31.124,-24.212 -51.879,-24.212 z m 426.486,0.007 c -16.141,0 -29.978,5.765 -41.5,17.288 -11.143,11.142 -16.713,24.783 -16.713,40.925 0,16.142 5.57,29.978 16.713,41.501 11.522,11.142 25.359,16.713 41.5,16.713 16.142,0 29.976,-5.571 41.508,-16.713 11.523,-11.523 17.281,-25.359 17.281,-41.501 0,-16.142 -5.758,-29.783 -17.281,-40.925 -11.532,-11.523 -25.366,-17.288 -41.508,-17.288 z m 0.569,127.964 c -16.142,0 -29.978,5.766 -41.501,17.289 -11.523,11.532 -17.281,25.366 -17.281,41.508 v 142.374 c 0,16.141 5.758,29.977 17.281,41.5 11.532,11.143 25.369,16.713 41.501,16.713 16.151,0 29.797,-5.57 40.939,-16.713 11.523,-11.523 17.281,-25.359 17.281,-41.5 v -142.374 c 0,-16.151 -5.758,-29.985 -17.281,-41.508 -11.151,-11.523 -24.798,-17.289 -40.939,-17.289 z"
   style="fill:#000000;fill-rule:nonzero"
   id="path57"
   sodipodi:nodetypes="cccsscscsccccccscscssccsccscccscscscscsscsscscsscs" />
    </g>
</svg>
